<svg width="38" height="40" viewBox="0 0 38 40" fill="none" xmlns="http://www.w3.org/2000/svg">
<path d="M19.5263 23.2762V32.5H9C8.99967 31.0463 9.2936 29.6118 9.85926 28.3064C10.4249 27.001 11.2473 25.8594 12.2634 24.9691C13.2795 24.0787 14.4623 23.4633 15.7212 23.1698C16.9801 22.8764 18.2817 22.9128 19.5263 23.2762ZM17.4211 21.7857C13.9316 21.7857 11.1053 18.5893 11.1053 14.6429C11.1053 10.6964 13.9316 7.5 17.4211 7.5C20.9105 7.5 23.7368 10.6964 23.7368 14.6429C23.7368 18.5893 20.9105 21.7857 17.4211 21.7857ZM23.7368 26.5476V22.9762H25.8421V26.5476H29V28.9286H25.8421V32.5H23.7368V28.9286H20.5789V26.5476H23.7368Z" fill="white"/>
</svg>
