<svg width="38" height="40" viewBox="0 0 38 40" fill="none" xmlns="http://www.w3.org/2000/svg">
<path d="M21.4956 7.5C23.783 7.49891 26.0016 8.28224 27.7814 9.71935C29.5613 11.1565 30.7947 13.1605 31.2761 15.3972C31.7574 17.6338 31.4576 19.968 30.4266 22.0103C29.3956 24.0526 27.6957 25.6797 25.6105 26.62C24.9439 28.094 23.9299 29.3842 22.6554 30.3801C21.3809 31.3759 19.8839 32.0477 18.2928 32.3379C16.7017 32.628 15.064 32.5277 13.5202 32.0457C11.9763 31.5637 10.5724 30.7144 9.42881 29.5705C8.2852 28.4266 7.43604 27.0223 6.95417 25.4781C6.47229 23.9339 6.37207 22.2958 6.66211 20.7043C6.95215 19.1129 7.62378 17.6155 8.61942 16.3407C9.61505 15.0659 10.905 14.0516 12.3785 13.3849C13.1708 11.6304 14.4525 10.1419 16.0697 9.09798C17.6869 8.0541 19.5709 7.49924 21.4956 7.5ZM17.7458 16.2517H15.2459V17.502C14.4336 17.5 13.6524 17.8145 13.068 18.3788C12.4836 18.9432 12.1418 19.7129 12.1151 20.525C12.0885 21.3371 12.379 22.1277 12.9252 22.7291C13.4714 23.3306 14.2302 23.6956 15.0409 23.747L15.2459 23.7532H17.7458L17.8583 23.7632C18.0024 23.7893 18.1328 23.8652 18.2266 23.9776C18.3205 24.09 18.3719 24.2319 18.3719 24.3783C18.3719 24.5248 18.3205 24.6666 18.2266 24.7791C18.1328 24.8915 18.0024 24.9674 17.8583 24.9935L17.7458 25.0035H12.746V27.504H15.2459V28.7542H17.7458V27.504C18.5581 27.5059 19.3393 27.1914 19.9237 26.6271C20.5082 26.0628 20.8499 25.293 20.8766 24.4809C20.9033 23.6688 20.6127 22.8783 20.0665 22.2768C19.5204 21.6754 18.7615 21.3103 17.9508 21.259L17.7458 21.2527H15.2459L15.1334 21.2427C14.9893 21.2166 14.859 21.1407 14.7651 21.0283C14.6712 20.9159 14.6198 20.7741 14.6198 20.6276C14.6198 20.4811 14.6712 20.3393 14.7651 20.2269C14.859 20.1145 14.9893 20.0386 15.1334 20.0125L15.2459 20.0025H20.2457V17.502H17.7458V16.2517ZM21.4956 10.0005C20.4365 10.0003 19.3894 10.2244 18.4231 10.6582C17.4569 11.092 16.5934 11.7256 15.8896 12.5172C17.3024 12.4315 18.7173 12.6466 20.0407 13.1486C21.3642 13.6505 22.566 14.4277 23.5667 15.4288C24.5675 16.4299 25.3444 17.6321 25.846 18.9559C26.3477 20.2797 26.5626 21.695 26.4767 23.1081C27.6131 22.0974 28.4156 20.7651 28.7776 19.2877C29.1396 17.8104 29.0441 16.2579 28.5036 14.8361C27.9632 13.4143 27.0034 12.1905 25.7516 11.3269C24.4998 10.4632 23.0151 10.0007 21.4944 10.0005" fill="white"/>
</svg>
