<svg width="21" height="20" viewBox="0 0 21 20" fill="none" xmlns="http://www.w3.org/2000/svg">
<g clip-path="url(#clip0_137_47)">
<path d="M14.2795 0.833333C14.5005 0.833333 14.7124 0.921131 14.8687 1.07741C15.025 1.23369 15.1128 1.44565 15.1128 1.66667V2.5H19.2795V7.5H17.597L19.8853 13.7875C20.0484 14.2105 20.1235 14.6623 20.106 15.1153C20.0885 15.5683 19.9788 16.013 19.7836 16.4222C19.5884 16.8313 19.3118 17.1963 18.9706 17.4949C18.6295 17.7935 18.2311 18.0194 17.7997 18.1587C17.3683 18.2981 16.913 18.3479 16.4616 18.3053C16.0103 18.2627 15.5724 18.1284 15.1747 17.9107C14.7771 17.6931 14.428 17.3966 14.1488 17.0394C13.8696 16.6822 13.6663 16.2718 13.5511 15.8333H10.0078C9.8184 16.5647 9.38628 17.2101 8.7822 17.6638C8.17812 18.1176 7.43789 18.3528 6.6827 18.3309C5.92751 18.309 5.20213 18.0314 4.62534 17.5434C4.04855 17.0555 3.65453 16.3861 3.50779 15.645C3.23774 15.5039 3.01151 15.2915 2.85372 15.0309C2.69593 14.7703 2.6126 14.4713 2.61279 14.1667V5.83333C2.61279 5.61232 2.70059 5.40036 2.85687 5.24408C3.01315 5.0878 3.22511 5 3.44613 5H9.27946C9.50047 5 9.71244 5.0878 9.86872 5.24408C10.025 5.40036 10.1128 5.61232 10.1128 5.83333V10C10.1128 10.221 10.2006 10.433 10.3569 10.5893C10.5132 10.7455 10.7251 10.8333 10.9461 10.8333H12.6128C12.8338 10.8333 13.0458 10.7455 13.202 10.5893C13.3583 10.433 13.4461 10.221 13.4461 10V2.5H10.9461V0.833333H14.2795ZM16.7795 13.3333C16.425 13.3334 16.0799 13.4465 15.7941 13.6562C15.5083 13.8658 15.2968 14.1611 15.1903 14.4992C15.0838 14.8372 15.0879 15.2004 15.2018 15.536C15.3158 15.8716 15.5338 16.1621 15.8242 16.3654C16.1145 16.5686 16.4621 16.674 16.8165 16.6663C17.1708 16.6585 17.5135 16.538 17.7946 16.3222C18.0758 16.1064 18.2809 15.8066 18.3801 15.4664C18.4792 15.1261 18.4673 14.7631 18.3461 14.43L18.332 14.3933C18.2099 14.081 17.9964 13.8127 17.7194 13.6236C17.4424 13.4345 17.1148 13.3333 16.7795 13.3333ZM6.77946 13.3333C6.33743 13.3333 5.91351 13.5089 5.60095 13.8215C5.28839 14.1341 5.11279 14.558 5.11279 15C5.11279 15.442 5.28839 15.866 5.60095 16.1785C5.91351 16.4911 6.33743 16.6667 6.77946 16.6667C7.22149 16.6667 7.64541 16.4911 7.95797 16.1785C8.27053 15.866 8.44613 15.442 8.44613 15C8.44613 14.558 8.27053 14.1341 7.95797 13.8215C7.64541 13.5089 7.22149 13.3333 6.77946 13.3333ZM8.44613 6.66667H4.27946V8.33333H8.44613V6.66667ZM17.6128 4.16667H15.1128V5.83333H17.6128V4.16667Z" fill="white"/>
</g>
<defs>
<clipPath id="clip0_137_47">
<rect width="20" height="20" fill="white" transform="translate(0.946167)"/>
</clipPath>
</defs>
</svg>
