<svg width="38" height="40" viewBox="0 0 38 40" fill="none" xmlns="http://www.w3.org/2000/svg">
<path d="M10.286 10.083L17.6625 17.6511L14.5562 20.8386L10.286 16.4557C9.46256 15.6105 9 14.4644 9 13.2693C9 12.0743 9.46256 10.9281 10.286 10.083ZM21.3167 19.4776L20.3801 20.4398L28.1432 28.4068L26.5917 30L18.8264 22.0341L11.0612 30L9.50855 28.4068L19.763 17.8844C19.1174 16.2427 19.785 13.8789 21.5429 12.0739C23.6874 9.87451 26.6422 9.33932 28.1421 10.8795C29.6442 12.4186 29.1226 15.4507 26.9782 17.6511C25.2191 19.4561 22.9166 20.1412 21.3167 19.4776Z" fill="white"/>
</svg>
