<svg width="38" height="40" viewBox="0 0 38 40" fill="none" xmlns="http://www.w3.org/2000/svg">
<path d="M29 32.5H9C8.66848 32.5 8.35054 32.3683 8.11612 32.1339C7.8817 31.8995 7.75 31.5815 7.75 31.25V8.75C7.75 8.41848 7.8817 8.10054 8.11612 7.86612C8.35054 7.6317 8.66848 7.5 9 7.5H29C29.3315 7.5 29.6495 7.6317 29.8839 7.86612C30.1183 8.10054 30.25 8.41848 30.25 8.75V31.25C30.25 31.5815 30.1183 31.8995 29.8839 32.1339C29.6495 32.3683 29.3315 32.5 29 32.5ZM27.75 30V10H10.25V30H27.75ZM12.75 12.5H17.75V17.5H12.75V12.5ZM12.75 20H25.25V22.5H12.75V20ZM12.75 25H25.25V27.5H12.75V25ZM20.25 13.75H25.25V16.25H20.25V13.75Z" fill="white"/>
</svg>
