<svg width="38" height="40" viewBox="0 0 38 40" fill="none" xmlns="http://www.w3.org/2000/svg">
<path d="M8.94737 27.5H11.5789V30H27.3684V10H11.5789V12.5H8.94737V8.75C8.94737 8.41848 9.086 8.10054 9.33275 7.86612C9.57951 7.6317 9.91419 7.5 10.2632 7.5H28.6842C29.0332 7.5 29.3679 7.6317 29.6146 7.86612C29.8614 8.10054 30 8.41848 30 8.75V31.25C30 31.5815 29.8614 31.8995 29.6146 32.1339C29.3679 32.3683 29.0332 32.5 28.6842 32.5H10.2632C9.91419 32.5 9.57951 32.3683 9.33275 32.1339C9.086 31.8995 8.94737 31.5815 8.94737 31.25V27.5ZM11.5789 18.75H20.7895V21.25H11.5789V25L5 20L11.5789 15V18.75Z" fill="white"/>
</svg>
