<svg width="38" height="40" viewBox="0 0 38 40" fill="none" xmlns="http://www.w3.org/2000/svg">
<path d="M29 32.5H9V30.119C9 28.5404 9.65848 27.0264 10.8306 25.9101C12.0027 24.7938 13.5924 24.1667 15.25 24.1667H22.75C24.4076 24.1667 25.9973 24.7938 27.1694 25.9101C28.3415 27.0264 29 28.5404 29 30.119V32.5ZM19 21.7857C18.0151 21.7857 17.0398 21.601 16.1299 21.242C15.2199 20.883 14.3931 20.3569 13.6967 19.6936C13.0003 19.0303 12.4478 18.2429 12.0709 17.3763C11.694 16.5097 11.5 15.5809 11.5 14.6429C11.5 13.7048 11.694 12.776 12.0709 11.9094C12.4478 11.0428 13.0003 10.2554 13.6967 9.59209C14.3931 8.92882 15.2199 8.40268 16.1299 8.04372C17.0398 7.68476 18.0151 7.5 19 7.5C20.9891 7.5 22.8968 8.25255 24.3033 9.59209C25.7098 10.9316 26.5 12.7485 26.5 14.6429C26.5 16.5373 25.7098 18.3541 24.3033 19.6936C22.8968 21.0332 20.9891 21.7857 19 21.7857Z" fill="white"/>
</svg>
