<svg width="38" height="40" viewBox="0 0 38 40" fill="none" xmlns="http://www.w3.org/2000/svg">
<path d="M12.1027 12.9806L9 9.16408L10.3532 7.5L13.4569 11.3166H28.0429C28.1921 11.3165 28.3392 11.3594 28.4725 11.4417C28.6058 11.5241 28.7216 11.6436 28.8107 11.7907C28.8997 11.9378 28.9596 12.1086 28.9855 12.2892C29.0114 12.4699 29.0026 12.6555 28.9597 12.8312L26.6629 22.246C26.6038 22.4886 26.4827 22.7012 26.3175 22.8524C26.1523 23.0035 25.9519 23.0852 25.746 23.0851H14.0167V25.4389H24.544V27.7926H13.0597C12.8059 27.7926 12.5625 27.6686 12.383 27.4479C12.2035 27.2272 12.1027 26.9278 12.1027 26.6157V12.9806ZM14.0167 13.6703V20.7314H25.034L26.7567 13.6703H14.0167ZM13.5382 32.5C13.1575 32.5 12.7924 32.314 12.5231 31.983C12.2539 31.6519 12.1027 31.2029 12.1027 30.7347C12.1027 30.2665 12.2539 29.8175 12.5231 29.4865C12.7924 29.1554 13.1575 28.9694 13.5382 28.9694C13.9189 28.9694 14.2841 29.1554 14.5533 29.4865C14.8225 29.8175 14.9738 30.2665 14.9738 30.7347C14.9738 31.2029 14.8225 31.6519 14.5533 31.983C14.2841 32.314 13.9189 32.5 13.5382 32.5ZM25.0225 32.5C24.6418 32.5 24.2767 32.314 24.0075 31.983C23.7382 31.6519 23.587 31.2029 23.587 30.7347C23.587 30.2665 23.7382 29.8175 24.0075 29.4865C24.2767 29.1554 24.6418 28.9694 25.0225 28.9694C25.4033 28.9694 25.7684 29.1554 26.0376 29.4865C26.3068 29.8175 26.4581 30.2665 26.4581 30.7347C26.4581 31.2029 26.3068 31.6519 26.0376 31.983C25.7684 32.314 25.4033 32.5 25.0225 32.5Z" fill="white"/>
</svg>
